<svg width="547" height="515" viewBox="0 0 547 515" fill="none" xmlns="http://www.w3.org/2000/svg">
<path d="M235.99 445.372V500.61C185.487 498.569 137.603 477.593 101.864 441.853C66.1237 406.113 45.1473 358.228 43.1069 307.726H98.3448C100.344 343.582 115.488 377.443 140.881 402.836C166.274 428.229 200.134 443.373 235.99 445.372Z" fill="white"/>
<path d="M235.991 98.29V153.525C200.134 155.521 166.271 170.665 140.877 196.059C115.483 221.453 100.34 255.317 98.3448 291.174H43.1069C45.1474 240.671 66.1239 192.787 101.864 157.047C137.604 121.307 185.488 100.33 235.991 98.29Z" fill="white"/>
<path d="M369.197 299.585C369.231 316.527 365.897 333.307 359.386 348.949C353.144 363.98 344.059 377.666 332.631 389.255C321.3 400.81 307.821 410.042 292.952 416.432C277.605 423.036 261.068 426.428 244.36 426.399C243.703 426.351 243.089 426.056 242.641 425.574C242.193 425.091 241.944 424.457 241.944 423.799C241.944 423.141 242.193 422.507 242.641 422.024C243.089 421.542 243.703 421.247 244.36 421.199C260.386 421.227 276.248 417.972 290.967 411.634C305.229 405.507 318.157 396.655 329.028 385.575C339.987 374.461 348.698 361.337 354.685 346.923C367.226 316.614 367.226 282.567 354.685 252.258C348.698 237.844 339.987 224.72 329.028 213.606C317.999 202.333 304.83 193.376 290.293 187.261C275.757 181.146 260.145 177.996 244.374 177.996C228.603 177.996 212.991 181.146 198.454 187.261C183.918 193.376 170.748 202.333 159.72 213.606C148.11 225.434 139.016 239.491 132.987 254.929C126.957 270.366 124.116 286.866 124.636 303.431C125.156 319.996 129.026 336.285 136.012 351.314C142.998 366.344 152.955 379.803 165.284 390.879L164.903 384.929L181.058 405.364L156.201 398.346L163.09 395.857C149.988 384.379 139.366 370.347 131.876 354.621C124.385 338.894 120.183 321.805 119.527 304.398C118.871 286.991 121.775 269.634 128.061 253.389C134.346 237.143 143.882 222.352 156.083 209.92C167.583 198.164 181.315 188.824 196.474 182.447C211.632 176.071 227.912 172.786 244.357 172.786C260.802 172.786 277.082 176.071 292.24 182.447C307.399 188.824 321.131 198.164 332.631 209.92C356.144 233.833 369.283 266.051 369.197 299.587V299.585Z" fill="white"/>
<path d="M445.432 299.345C445.432 302.11 445.377 304.869 445.268 307.62C443.226 358.122 422.25 406.006 386.51 441.745C350.77 477.485 302.887 498.462 252.384 500.503V445.268C288.24 443.267 322.1 428.122 347.493 402.729C372.886 377.335 388.03 343.475 390.03 307.619C390.182 304.881 390.257 302.123 390.257 299.344C390.257 296.565 390.182 293.806 390.03 291.066C388.031 255.211 372.887 221.35 347.494 195.957C322.101 170.564 288.24 155.42 252.384 153.421V98.197C302.886 100.242 350.767 121.22 386.506 156.959C422.245 192.698 443.223 240.58 445.268 291.081C445.377 293.825 445.432 296.58 445.432 299.345Z" fill="white"/>
<path d="M543.205 472.713L506.461 430.698V445.125H383.415C365.828 461.917 345.333 475.369 322.931 484.825C301.864 493.735 279.268 495.685 256.869 500.287H506.734L506.461 514.714L543.205 472.713Z" fill="white"/>
<path d="M546.261 105.608L506.01 145.586L465.761 105.608H485.282C484.887 96.04 482.385 86.6771 477.955 78.1872C473.525 69.6973 467.276 62.2894 459.654 56.492C452.032 50.6946 443.225 46.6505 433.86 44.6481C424.496 42.6457 414.805 42.7343 405.479 44.9077C396.153 47.081 387.421 51.2856 379.906 57.2214C372.392 63.1572 366.279 70.6781 362.005 79.2476C357.732 87.8172 355.401 97.2242 355.181 106.798C354.96 116.371 356.855 125.876 360.73 134.633C348.746 126.082 335.856 118.879 322.294 113.152C319.479 111.963 316.65 110.841 313.805 109.784C313.805 109.261 313.791 108.733 313.791 108.21C313.605 94.2207 316.178 80.3319 321.363 67.3378C326.549 54.3436 334.244 42.4989 344.01 32.4807C353.775 22.4626 365.42 14.4675 378.278 8.95267C391.136 3.43782 404.954 0.511295 418.944 0.340458C432.933 0.16962 446.819 2.75781 459.807 7.95703C472.796 13.1563 484.632 20.8646 494.64 30.6412C504.648 40.4179 512.63 52.0712 518.131 64.9349C523.632 77.7986 526.543 91.6203 526.699 105.61L546.261 105.608Z" fill="white"/>
<path d="M236.24 445.057H0V500.232H236.24V445.057Z" fill="white"/>
<path d="M445.495 82.841C439.524 76.8684 431.668 73.151 423.263 72.3221C414.859 71.4931 406.428 73.604 399.405 78.2951C392.383 82.9861 387.205 89.9671 384.753 98.0483C382.301 106.129 382.727 114.811 385.959 122.613C389.19 130.415 395.027 136.855 402.475 140.836C409.923 144.817 418.521 146.092 426.803 144.444C435.086 142.796 442.541 138.327 447.898 131.799C453.255 125.27 456.182 117.086 456.181 108.641C456.179 98.9646 452.336 89.6845 445.495 82.841ZM441.453 130.407C439.962 131.894 438.325 133.228 436.568 134.388V132.325C436.566 128.225 435.072 124.266 432.365 121.186C429.658 118.106 425.923 116.117 421.857 115.589C424.592 115.045 427.028 113.503 428.69 111.263C430.351 109.023 431.12 106.245 430.847 103.469C430.574 100.693 429.278 98.1184 427.211 96.2453C425.145 94.3721 422.455 93.3346 419.666 93.3346C416.877 93.3346 414.188 94.3721 412.121 96.2453C410.054 98.1184 408.758 100.693 408.485 103.469C408.212 106.245 408.981 109.023 410.643 111.263C412.304 113.503 414.74 115.045 417.476 115.589C413.413 116.121 409.683 118.112 406.98 121.191C404.277 124.27 402.787 128.227 402.787 132.324V134.387C401.03 133.228 399.395 131.894 397.907 130.406C393.603 126.102 390.671 120.618 389.484 114.648C388.297 108.678 388.906 102.49 391.235 96.8666C393.565 91.2431 397.509 86.4366 402.57 83.0549C407.632 79.6732 413.582 77.8682 419.669 77.8682C425.756 77.8682 431.706 79.6732 436.767 83.0549C441.828 86.4366 445.773 91.2431 448.102 96.8666C450.431 102.49 451.041 108.678 449.853 114.648C448.666 120.618 445.735 126.102 441.431 130.406L441.453 130.407Z" fill="white"/>
</svg>
